<?xml version="1.0" encoding="UTF-8"?>
<svg id="Layer_1" data-name="Layer 1" xmlns="http://www.w3.org/2000/svg" viewBox="0 0 301.28 180.53">
  <defs>
    <style>
      .cls-1 {
        fill: #680307;
      }
    </style>
  </defs>
  <path class="cls-1" d="M301.28,150.78c0-2-1.2-2.25-2.86-2.23-7.17.06-14.37-.23-21.53.19-4.46.25-6.96-1.29-9.14-5.19-5.69-10.34-11.89-20.4-17.79-30.61-1.04-1.81-2.19-2.4-4.21-2.36-5.85.12-11.73.19-17.55,0-2.82-.1-4.3.95-5.65,3.38-5.73,10.19-11.73,20.22-17.44,30.43-1.78,3.18-3.98,4.59-7.69,4.34-.72-.04-1.45-.09-2.16-.1V43.09c0-23.77-19.32-43.09-43.09-43.09s-43.08,19.32-43.08,43.09v105.74c-2.11.02-3.87.09-5.07.15-4.49.25-6.99-1.29-9.14-5.19-5.71-10.34-11.92-20.4-17.81-30.61-1.01-1.81-2.19-2.4-4.21-2.36-5.85.12-11.7.19-17.56,0-2.81-.1-4.29.95-5.64,3.38-5.71,10.19-11.73,20.22-17.44,30.43-1.78,3.18-3.99,4.59-7.67,4.34-4.64-.28-9.29-.12-13.93-.15H0v31.67c13.58,0,26.84-.06,40.08.04,3.76.04,6.26-1.53,8-4.76,2.1-3.86,4.25-7.71,6.47-11.54,2.98-5.23,6.05-10.4,9.46-16.28,4.75,8.46,9.55,16.03,13.39,24.06,3.1,6.46,7.31,8.87,14.52,8.5,3.99-.2,10.2-.28,17.15-.31h0c7.15-.13,18.5-.1,26.89-.07V43.09c0-8.94,7.26-16.2,16.19-16.2s16.2,7.26,16.2,16.2v137.07h15.15c3.91.02,7.83-.1,11.74.05h0c7.24.03,13.61.04,17.72.07,3.76.04,6.27-1.53,8-4.76,2.09-3.86,4.27-7.71,6.46-11.54,2.99-5.23,6.06-10.4,9.47-16.28,4.75,8.46,9.54,16.03,13.39,24.06,3.1,6.46,7.31,8.87,14.51,8.5,11.89-.62,23.85-.16,36.46-.16,0-10.15-.02-19.73,0-29.31Z"/>
</svg> 